<svg width="24" height="22" viewBox="0 0 24 22" fill="none" xmlns="http://www.w3.org/2000/svg">
<path d="M21.6206 6.06833C21.523 5.84435 21.3362 5.66635 21.1012 5.57333C20.9856 5.52636 20.8615 5.50145 20.7358 5.5H15.9273C15.6723 5.5 15.4277 5.59658 15.2473 5.76849C15.067 5.94039 14.9656 6.17355 14.9656 6.41667C14.9656 6.65978 15.067 6.89294 15.2473 7.06485C15.4277 7.23676 15.6723 7.33333 15.9273 7.33333H18.4181L13.0422 12.4575L9.87826 9.4325C9.78886 9.34658 9.68249 9.27839 9.5653 9.23185C9.44811 9.18531 9.32241 9.16135 9.19546 9.16135C9.0685 9.16135 8.9428 9.18531 8.82561 9.23185C8.70842 9.27839 8.60205 9.34658 8.51265 9.4325L2.74248 14.9325C2.65234 15.0177 2.58079 15.1191 2.53197 15.2308C2.48314 15.3425 2.45801 15.4623 2.45801 15.5833C2.45801 15.7043 2.48314 15.8242 2.53197 15.9359C2.58079 16.0476 2.65234 16.1489 2.74248 16.2342C2.83188 16.3201 2.93824 16.3883 3.05543 16.4348C3.17263 16.4814 3.29832 16.5053 3.42528 16.5053C3.55224 16.5053 3.67793 16.4814 3.79513 16.4348C3.91232 16.3883 4.01868 16.3201 4.10808 16.2342L9.19546 11.3758L12.3594 14.4008C12.4488 14.4867 12.5552 14.5549 12.6724 14.6015C12.7896 14.648 12.9153 14.672 13.0422 14.672C13.1692 14.672 13.2949 14.648 13.4121 14.6015C13.5293 14.5549 13.6356 14.4867 13.725 14.4008L19.7741 8.62583V11C19.7741 11.2431 19.8754 11.4763 20.0558 11.6482C20.2361 11.8201 20.4807 11.9167 20.7358 11.9167C20.9909 11.9167 21.2355 11.8201 21.4158 11.6482C21.5962 11.4763 21.6975 11.2431 21.6975 11V6.41667C21.696 6.29688 21.6698 6.17854 21.6206 6.06833Z" fill="#4A5AED"/>
</svg>
