<svg width="38" height="43" viewBox="0 0 38 43" fill="none" xmlns="http://www.w3.org/2000/svg">
<path d="M29.5453 17.5537C28.3683 16.9719 26.9663 16.8616 25.3395 17.2231C26.7336 15.3725 26.7662 13.369 25.4379 11.2117C24.9626 10.4263 24.3883 9.82478 23.7142 9.40621C23.0397 8.98764 22.2901 8.75221 21.4632 8.7007C20.6367 8.64848 19.7962 8.71168 18.943 8.88866C18.0896 9.06574 17.1495 9.35047 16.1234 9.74277L13.8298 5.03621L10.9538 6.43775L13.1837 11.0135C12.6857 11.2562 11.9323 11.6388 10.9236 12.1612L8.67544 7.54808L5.79909 8.94981L8.09274 13.6564C7.68782 13.8692 7.08712 14.1698 6.29029 14.5581L2.32173 16.4688L3.81445 19.5318L5.88742 18.5216C6.83373 18.0604 7.59416 18.2138 8.16855 18.9815L10.7808 24.3419C10.9055 24.2811 11.0081 24.239 11.0889 24.215L10.79 24.3607L14.4487 31.8684C14.6586 32.5518 14.4524 33.0455 13.8298 33.3489L11.757 34.359L12.8436 38.0592L16.579 36.2388C16.8156 36.1235 17.1593 35.9599 17.6105 35.747C18.0617 35.5348 18.3993 35.3742 18.6234 35.265L20.9444 40.0275L23.8212 38.6255L21.5275 33.919C22.0566 33.677 22.819 33.3129 23.8151 32.8275L26.0995 37.5152L28.9756 36.1136L26.6546 31.3511C27.6516 30.8037 28.5121 30.2694 29.2354 29.7469C29.9591 29.2241 30.6112 28.6409 31.1905 27.9963C31.77 27.3521 32.1962 26.6934 32.4693 26.021C32.7429 25.3488 32.8739 24.599 32.8643 23.7715C32.8536 22.9445 32.6769 22.0676 32.3329 21.141C31.6522 19.3316 30.7226 18.1358 29.5453 17.5537ZM12.6176 15.4953C12.7048 15.4528 12.9492 15.3298 13.3508 15.1264C13.7525 14.9226 14.0855 14.7527 14.3502 14.616C14.6149 14.4794 14.9836 14.319 15.4564 14.1348C15.9291 13.9506 16.3362 13.814 16.6777 13.7245C17.0192 13.635 17.412 13.5707 17.855 13.5321C18.2985 13.4929 18.6821 13.5218 19.0061 13.6181C19.3305 13.7142 19.6478 13.8833 19.9579 14.1251C20.2685 14.3666 20.5238 14.6929 20.724 15.1037C20.8939 15.4524 20.9927 15.7972 21.0205 16.1383C21.0483 16.4791 20.9966 16.8009 20.8668 17.103C20.7369 17.4052 20.5881 17.6859 20.4212 17.9443C20.2546 18.2025 20.0086 18.4651 19.6838 18.7311C19.3592 18.9972 19.072 19.2219 18.8224 19.405C18.5728 19.5884 18.2472 19.7896 17.8453 20.0084C17.4433 20.2273 17.1381 20.3917 16.9296 20.501C16.7208 20.6103 16.4314 20.7513 16.061 20.9243C15.6905 21.0972 15.4744 21.1985 15.412 21.2289L12.6176 15.4953ZM26.6696 24.3865C26.6907 24.7309 26.6598 25.0542 26.5764 25.357C26.4924 25.6594 26.3375 25.9663 26.1114 26.2765C25.8855 26.5872 25.6531 26.8619 25.4155 27.101C25.1778 27.3407 24.8743 27.5958 24.5066 27.8678C24.1379 28.14 23.8089 28.3654 23.5188 28.5456C23.2291 28.7253 22.8771 28.9275 22.4628 29.1528C22.0485 29.3773 21.723 29.5477 21.4865 29.6629C21.2499 29.7782 20.9494 29.9205 20.5853 30.0904C20.2212 30.2606 19.9895 30.3697 19.8898 30.4182L16.8133 24.1053C16.9128 24.0568 17.2056 23.9066 17.6913 23.6541C18.1772 23.4018 18.5757 23.2004 18.887 23.0487C19.1983 22.897 19.6369 22.706 20.2033 22.4765C20.7689 22.2468 21.2569 22.078 21.6671 21.9706C22.077 21.8634 22.5405 21.7798 23.0588 21.7201C23.5765 21.6603 24.0271 21.6756 24.4104 21.7662C24.7938 21.8572 25.1633 22.0309 25.52 22.2887C25.877 22.546 26.1645 22.899 26.383 23.3474C26.553 23.6964 26.6485 24.0422 26.6696 24.3865Z" fill="white"/>
</svg>
