<svg width="14" height="14" viewBox="0 0 14 14" fill="none" xmlns="http://www.w3.org/2000/svg">
<g clip-path="url(#clip0)">
<path d="M11.1842 7.30965C10.8921 6.93198 10.4514 6.67257 9.86203 6.53159C10.6126 6.14876 10.9424 5.49901 10.8518 4.58223C10.8215 4.24979 10.7297 3.96167 10.576 3.71745C10.4222 3.47318 10.2146 3.27681 9.95256 3.12825C9.69069 2.97951 9.40588 2.86628 9.09879 2.78821C8.79162 2.71015 8.43896 2.65347 8.04105 2.61825V0.714355H6.87767V2.56535C6.67622 2.56535 6.36899 2.57038 5.95603 2.58046V0.714355H4.79249V2.61825C4.62623 2.6233 4.38198 2.62587 4.05965 2.62587L2.45801 2.61825V3.85731H3.29656C3.67936 3.85731 3.9035 4.02859 3.96896 4.37104V6.53939C4.0194 6.53939 4.05965 6.54199 4.0899 6.54701H3.96896V9.58403C3.92871 9.84085 3.78267 9.96938 3.53081 9.96938H2.6923L2.45806 11.352H3.9691C4.06481 11.352 4.20323 11.3533 4.38463 11.3555C4.56592 11.3581 4.70186 11.3593 4.79254 11.3593V13.2859H5.95626V11.382C6.16775 11.3872 6.47497 11.3896 6.87791 11.3896V13.2859H8.04131V11.3593C8.45441 11.3392 8.82081 11.3017 9.14049 11.2461C9.46034 11.1905 9.7664 11.1037 10.0585 10.9853C10.3505 10.867 10.5947 10.7196 10.7911 10.5433C10.9876 10.3672 11.1499 10.1429 11.2786 9.87088C11.4068 9.59885 11.4888 9.28406 11.5239 8.92637C11.5897 8.22645 11.4763 7.68747 11.1842 7.30965ZM5.97865 3.94018C6.01392 3.94018 6.11339 3.93891 6.27709 3.93637C6.44086 3.93378 6.5768 3.93129 6.68508 3.92875C6.79339 3.92627 6.93946 3.93256 7.12337 3.94767C7.3072 3.96278 7.46206 3.98297 7.58794 4.00811C7.71382 4.03325 7.85245 4.07482 8.00342 4.13275C8.15465 4.19062 8.27545 4.26117 8.366 4.34426C8.45674 4.42735 8.53353 4.53317 8.59638 4.66162C8.65941 4.79004 8.6909 4.93735 8.6909 5.10354C8.6909 5.24458 8.66828 5.37305 8.623 5.48896C8.5778 5.60478 8.50964 5.70176 8.41908 5.77983C8.32851 5.85791 8.23515 5.92598 8.13943 5.98385C8.04383 6.04172 7.92157 6.08835 7.77304 6.12357C7.62454 6.15884 7.49485 6.18655 7.3841 6.20666C7.27328 6.22682 7.1348 6.24072 6.96857 6.24823C6.80231 6.25575 6.67635 6.26088 6.59077 6.26337C6.50511 6.26585 6.38804 6.26585 6.23941 6.26337C6.09074 6.26088 6.00397 6.25956 5.97873 6.25956V3.94016H5.97865V3.94018ZM9.15568 9.08512C9.10771 9.20102 9.0461 9.30182 8.97061 9.3875C8.89498 9.47297 8.79545 9.5486 8.67211 9.61399C8.5488 9.67956 8.42906 9.73235 8.31332 9.77266C8.19741 9.81312 8.05759 9.84818 7.89405 9.8785C7.73015 9.90875 7.58669 9.93003 7.46317 9.9427C7.33983 9.95532 7.19257 9.96535 7.02125 9.97297C6.85007 9.98038 6.71652 9.98422 6.62086 9.98422C6.52514 9.98422 6.40424 9.98284 6.25817 9.98038C6.11202 9.97803 6.01893 9.97676 5.9786 9.97676V7.42304C6.01885 7.42304 6.13848 7.42058 6.33748 7.41544C6.5365 7.41036 6.69884 7.40801 6.82477 7.40801C6.95068 7.40801 7.12451 7.41544 7.34621 7.43066C7.5677 7.44566 7.75407 7.46824 7.9053 7.49846C8.05634 7.52873 8.22118 7.57525 8.40011 7.63828C8.57886 7.70121 8.72374 7.778 8.83459 7.86866C8.94542 7.95948 9.03853 8.07514 9.11406 8.21621C9.18977 8.3572 9.22753 8.51841 9.22753 8.69978C9.2275 8.84095 9.2036 8.96919 9.15568 9.08512Z" fill="#FF9900"/>
</g>
<defs>
<clipPath id="clip0">
<rect width="12.5714" height="12.5714" fill="white" transform="translate(0.714355 0.714355)"/>
</clipPath>
</defs>
</svg>
