<svg width="24" height="22" viewBox="0 0 24 22" fill="none" xmlns="http://www.w3.org/2000/svg">
<path d="M5.18042 4.58336V17.4167C5.18042 17.6598 5.28174 17.893 5.46209 18.0649C5.64245 18.2368 5.88706 18.3334 6.14212 18.3334H9.0272V16.5H7.10381V5.50003H9.0272V3.6667H6.14212C5.88706 3.6667 5.64245 3.76328 5.46209 3.93518C5.28174 4.10709 5.18042 4.34025 5.18042 4.58336ZM18.8769 3.6942L11.1833 1.86086C11.0416 1.82717 10.8937 1.82469 10.7508 1.85362C10.6079 1.88256 10.4738 1.94214 10.3587 2.02784C10.2435 2.11355 10.1504 2.22312 10.0863 2.34826C10.0223 2.47339 9.98894 2.61079 9.9889 2.75003V19.25C9.98856 19.3894 10.0216 19.527 10.0856 19.6523C10.1495 19.7776 10.2427 19.8873 10.3579 19.9731C10.4731 20.0589 10.6074 20.1185 10.7504 20.1472C10.8935 20.176 11.0416 20.1733 11.1833 20.1392L18.8769 18.3059C19.085 18.2564 19.2698 18.142 19.4019 17.9809C19.534 17.8198 19.6058 17.6212 19.6059 17.4167V4.58336C19.6058 4.37889 19.534 4.18031 19.4019 4.01919C19.2698 3.85808 19.085 3.74368 18.8769 3.6942ZM14.7974 11.1724C14.7863 11.4084 14.6801 11.6312 14.501 11.7945C14.3219 11.9578 14.0835 12.0489 13.8357 12.0489C13.5878 12.0489 13.3495 11.9578 13.1704 11.7945C12.9912 11.6312 12.8851 11.4084 12.874 11.1724V10.8268C12.8741 10.5837 12.9756 10.3506 13.156 10.1787C13.3364 10.0069 13.5811 9.91045 13.8362 9.91057C14.0912 9.91069 14.3358 10.0074 14.516 10.1794C14.6963 10.3514 14.7975 10.5846 14.7974 10.8277V11.1724Z" fill="#505AE9"/>
</svg>
