<svg width="16" height="16" viewBox="0 0 16 16" fill="none" xmlns="http://www.w3.org/2000/svg">
<path fill-rule="evenodd" clip-rule="evenodd" d="M7.86717 1.3711C7.83705 1.4432 6.92679 2.97166 5.84437 4.76771C4.76196 6.56371 3.86733 8.05675 3.85626 8.08557C3.84189 8.12305 4.42994 8.48887 5.91821 9.36826L8.00033 10.5985L10.0819 9.36759C11.5773 8.48326 12.1577 8.12178 12.1432 8.0839C12.068 7.88786 8.02028 1.23999 7.97611 1.23999C7.94632 1.23999 7.8973 1.29897 7.86717 1.3711ZM3.8612 8.97035C3.94143 9.10752 7.98313 14.7942 8.00003 14.7936C8.02796 14.7928 12.1602 8.95349 12.1442 8.93748C12.1291 8.92243 8.26668 11.1973 8.10556 11.3161L8.00679 11.389L6.00698 10.2083C4.90707 9.55891 3.96654 9.0014 3.91692 8.96942C3.83465 8.91642 3.82971 8.91649 3.8612 8.97035Z" fill="#6374C4"/>
</svg>
