<svg width="34" height="26" viewBox="0 0 34 26" fill="none" xmlns="http://www.w3.org/2000/svg">
<g clip-path="url(#clip0)">
<path d="M18.6014 18.1811C18.1656 18.7319 17.5716 19.2441 16.7828 19.6938C14.022 21.2691 10.7645 20.7364 8.61967 17.6977L24.599 8.58414C24.308 7.81576 23.9368 7.09187 23.5265 6.38962C19.7688 -0.0412392 12.8266 -1.74635 6.51376 1.85387C0.0438909 5.54427 -1.92568 12.4357 2.06093 19.2561C6.02441 26.0381 13.1918 27.7709 19.5436 24.1478C19.6775 24.0721 19.809 23.9939 19.938 23.9145C19.0676 22.4704 18.5685 20.7821 18.5685 18.9784C18.5685 18.7102 18.5795 18.4445 18.6014 18.1811ZM8.97633 6.42569C11.8163 4.80595 15.1528 5.29296 16.8948 8.09353L6.51863 14.0121C5.22101 10.8027 6.33239 7.9336 8.97633 6.42569Z" fill="#252B63"/>
<path d="M27.9574 25.3435C31.2946 25.3435 34 22.671 34 19.3743C34 16.0777 31.2946 13.4052 27.9574 13.4052C24.6202 13.4052 21.9148 16.0777 21.9148 19.3743C21.9148 22.671 24.6202 25.3435 27.9574 25.3435Z" fill="#252B63"/>
</g>
<defs>
<clipPath id="clip0">
<rect width="34" height="26" fill="white"/>
</clipPath>
</defs>
</svg>
