<svg width="34" height="32" viewBox="0 0 34 32" fill="none" xmlns="http://www.w3.org/2000/svg">
<g clip-path="url(#clip0)">
<path d="M23.5006 12.1729L12.5773 22.9025C12.5082 22.9703 12.5099 23.0797 12.5811 23.1455L13.5516 24.0432C13.6228 24.109 13.7376 24.1074 13.8066 24.0396L23.3063 14.7084L24.0014 19.6713C24.0211 19.8123 24.2054 19.8719 24.3106 19.7686L25.4486 18.6508C25.5255 18.5753 25.5621 18.4714 25.5477 18.3653L24.7341 12.5593C24.6534 11.9907 23.9213 11.7597 23.5006 12.1729ZM20.0614 8.27031L10.5618 17.6015L9.86667 12.6386C9.84692 12.4976 9.66267 12.4379 9.5575 12.5412L8.41949 13.6591C8.34257 13.7346 8.30595 13.8385 8.32038 13.9446L9.13399 19.7505C9.21468 20.3191 9.94678 20.5502 10.3659 20.1385L21.2908 9.4074C21.3599 9.33956 21.3581 9.2302 21.287 9.16436L20.3164 8.26666C20.2452 8.20083 20.1305 8.20247 20.0614 8.27031Z" fill="#505AE9"/>
</g>
<defs>
<clipPath id="clip0">
<rect width="22.5306" height="22.5631" fill="white" transform="matrix(0.713405 -0.700752 0.734117 0.679023 0.615479 16.3887)"/>
</clipPath>
</defs>
</svg>
