<svg width="11" height="15" viewBox="0 0 11 15" fill="none" xmlns="http://www.w3.org/2000/svg">
<path d="M7.10396 14.9869C6.68208 15.0259 6.25672 14.9776 5.85411 14.8449C5.4515 14.7122 5.08017 14.498 4.76301 14.2154C4.53865 14 4.3589 13.7422 4.23412 13.4566C4.10933 13.171 4.04199 12.8634 4.03599 12.5515C4.02786 12.3603 4.07394 12.1707 4.16883 12.0049C4.24765 11.8585 4.36704 11.7384 4.51246 11.6591C4.67955 11.5695 4.86637 11.5235 5.05574 11.5255C5.24579 11.517 5.43429 11.5634 5.59901 11.6591C5.74443 11.7384 5.86381 11.8585 5.94263 12.0049C6.03175 12.173 6.07744 12.361 6.07547 12.5515C6.08567 12.7798 6.02019 13.005 5.88934 13.1917C5.77775 13.3474 5.6202 13.4636 5.43913 13.5239C5.619 13.7431 5.86503 13.8974 6.1399 13.9633C6.45001 14.0539 6.7715 14.0989 7.09441 14.0969C7.53503 14.1069 7.96714 13.9739 8.32684 13.7176C8.68653 13.4613 8.95471 13.0954 9.09173 12.6739C9.26991 12.1598 9.35478 11.6176 9.34229 11.0733C9.357 10.5101 9.263 9.94939 9.06548 9.42222C8.9182 8.9995 8.63382 8.63895 8.25813 8.3986C7.91018 8.17729 7.50603 8.06194 7.09441 8.06647C6.73261 8.0978 6.38364 8.21639 6.07706 8.41221L5.33095 8.77156V8.3994L8.70276 3.87517H4.03599V8.57308C4.02147 8.91129 4.10881 9.24603 4.28655 9.53346C4.37427 9.65731 4.49202 9.75651 4.6286 9.82165C4.76518 9.88679 4.91605 9.9157 5.06687 9.90562C5.35035 9.90173 5.62464 9.80383 5.84718 9.6271C6.09478 9.43947 6.31303 9.21556 6.49466 8.96283C6.51076 8.92035 6.53831 8.88321 6.5742 8.85559C6.6044 8.83084 6.64186 8.81677 6.68079 8.81557C6.7635 8.82121 6.84205 8.85412 6.9043 8.90921C6.98257 8.99714 7.02541 9.1113 7.02441 9.22934C7.02441 9.28296 6.99816 9.36299 6.98464 9.46944C6.82555 9.87496 6.54826 10.2226 6.18921 10.4666C5.857 10.6916 5.46573 10.812 5.06528 10.8124C4.31351 10.8946 3.55935 10.6803 2.96137 10.2145C2.76312 9.99564 2.60977 9.73952 2.51013 9.46086C2.41049 9.1822 2.36651 8.88648 2.38071 8.59068V3.87917H0V2.99882H2.39423V1.00201L1.85096 0.455385V0H3.44181L4.03599 0.305727V2.98281L10.2133 2.96921L10.8202 3.57985L7.04032 7.4014C7.26928 7.30863 7.51043 7.24986 7.7562 7.22693C8.23967 7.24727 8.71115 7.38454 9.13071 7.62709C9.62258 7.85763 10.0371 8.2272 10.3239 8.69072C10.5802 9.08519 10.7642 9.52267 10.8671 9.98244C10.946 10.3455 10.9905 10.7153 11 11.0869C11.003 11.7927 10.8443 12.4897 10.5362 13.1237C10.2452 13.7422 9.75023 14.2403 9.13548 14.5331C8.5022 14.8401 7.80687 14.9954 7.10396 14.9869Z" fill="#2C7DF7"/>
</svg>
