<svg width="39" height="40" viewBox="0 0 39 40" fill="none" xmlns="http://www.w3.org/2000/svg">
<path d="M38.7074 20.8219L31.287 11.0485C31.1717 10.8941 30.9608 10.8513 30.7926 10.9407L19.5109 16.9393C19.3427 17.0287 19.2603 17.2275 19.3238 17.4094L23.2769 29.0264C23.2818 29.046 23.2933 29.0675 23.3024 29.0848C23.4033 29.2745 23.6411 29.3473 23.8309 29.2464L38.5799 21.4041C38.5972 21.395 38.6188 21.3835 38.6337 21.37C38.8031 21.2412 38.8385 20.9956 38.7074 20.8219ZM12.7428 20.9086C12.6275 20.7542 12.4167 20.7114 12.2485 20.8008L0.96675 26.7994C0.798559 26.8888 0.716136 27.0876 0.77969 27.2695L4.73278 38.8865C4.73764 38.9061 4.74911 38.9276 4.75828 38.9449C4.85917 39.1346 5.09698 39.2074 5.28673 39.1065L20.0358 31.2642C20.053 31.2551 20.0746 31.2436 20.0896 31.2301C20.2633 31.099 20.2943 30.8557 20.1632 30.682L12.7428 20.9086ZM6.71385 19.3182L21.4629 11.4759C21.4802 11.4668 21.5017 11.4553 21.5167 11.4418C21.6904 11.3107 21.7214 11.0674 21.5904 10.8937L14.1699 1.12029C14.0546 0.965858 13.8438 0.923069 13.6756 1.0125L2.39387 7.01111C2.22568 7.10054 2.14326 7.29925 2.20681 7.4812L6.1599 19.0982C6.16476 19.1178 6.17623 19.1393 6.1854 19.1566C6.28629 19.3463 6.5241 19.4191 6.71385 19.3182Z" fill="white"/>
</svg>
