<svg width="24" height="24" viewBox="0 0 24 24" fill="none" xmlns="http://www.w3.org/2000/svg">
<mask id="mask0" mask-type="alpha" maskUnits="userSpaceOnUse" x="2" y="2" width="21" height="21">
<path fill-rule="evenodd" clip-rule="evenodd" d="M2.00037 2.0002H22.5V22.4997H2.00037V2.0002Z" fill="white"/>
</mask>
<g mask="url(#mask0)">
<path fill-rule="evenodd" clip-rule="evenodd" d="M4.35945 5.0607C4.36145 5.0607 4.31145 5.1127 4.24845 5.1747C4.00645 5.4097 3.50545 5.8987 3.50045 6.9217C3.49245 8.3527 4.43345 11.0097 8.96445 15.5397C13.4745 20.0477 16.1274 20.9997 17.5615 20.9997H17.5824C18.6054 20.9947 19.0935 20.4927 19.3295 20.2517C19.4014 20.1777 19.4594 20.1237 19.5005 20.0897C20.4965 19.0877 21.0065 18.3417 21.0015 17.8637C20.9945 17.3757 20.3874 16.7987 19.5485 16.0007C19.2815 15.7467 18.9914 15.4707 18.6854 15.1647C17.8925 14.3737 17.4995 14.5087 16.6355 14.8127C15.4405 15.2317 13.8005 15.8017 11.2524 13.2527C8.70045 10.7027 9.27145 9.0647 9.68945 7.8697C9.99145 7.0057 10.1295 6.6117 9.33545 5.8177C9.02445 5.5077 8.74545 5.2137 8.48845 4.9437C7.69545 4.1097 7.12345 3.5067 6.63845 3.4997H6.63045C6.15145 3.4997 5.40745 4.0117 4.35445 5.0647C4.35745 5.0617 4.35845 5.0607 4.35945 5.0607ZM17.5625 22.4997C15.0704 22.4997 11.8215 20.5157 7.90445 16.6007C3.97245 12.6697 1.98545 9.4107 2.00045 6.9137C2.00945 5.2637 2.87445 4.4187 3.19945 4.1017C3.21645 4.0807 3.27445 4.0237 3.29445 4.0037C4.72845 2.5687 5.69545 1.9887 6.65745 1.9997C7.77445 2.0147 8.56945 2.8507 9.57545 3.9097C9.82445 4.1717 10.0945 4.4567 10.3955 4.7567C11.8555 6.2167 11.4395 7.4077 11.1055 8.3637C10.7415 9.4067 10.4265 10.3067 12.3125 12.1927C14.2004 14.0787 15.1004 13.7637 16.1395 13.3967C17.0964 13.0627 18.2845 12.6447 19.7465 14.1047C20.0424 14.4007 20.3235 14.6677 20.5825 14.9147C21.6465 15.9257 22.4865 16.7247 22.5005 17.8447C22.5124 18.7997 21.9324 19.7727 20.5005 21.2057L19.8665 20.7757L20.4025 21.2997C20.0855 21.6247 19.2414 22.4907 17.5905 22.4997H17.5625Z" fill="#130F26"/>
</g>
</svg>
