<svg width="16" height="16" viewBox="0 0 16 16" fill="none" xmlns="http://www.w3.org/2000/svg">
<path d="M1.5 1.85908V14.1403C1.50008 14.167 1.50803 14.193 1.52284 14.2151C1.53766 14.2373 1.55868 14.2546 1.58328 14.2648C1.60788 14.2751 1.63495 14.2778 1.66111 14.2727C1.68726 14.2677 1.71134 14.255 1.73031 14.2363L8.125 8.00001L1.73031 1.76314C1.71134 1.74443 1.68726 1.73174 1.66111 1.72666C1.63495 1.72158 1.60788 1.72434 1.58328 1.73459C1.55868 1.74483 1.53766 1.76211 1.52284 1.78426C1.50803 1.8064 1.50008 1.83243 1.5 1.85908Z" fill="black"/>
<path d="M10.8062 5.43753L2.78811 1.02003L2.78311 1.01722C2.64498 0.94222 2.51373 1.12909 2.62686 1.23784L8.91217 7.24784L10.8062 5.43753Z" fill="black"/>
<path d="M2.62747 14.7622C2.51372 14.8709 2.64497 15.0578 2.78372 14.9828L2.78872 14.98L10.8062 10.5625L8.91215 8.75153L2.62747 14.7622Z" fill="black"/>
<path d="M14.0431 7.21872L11.804 5.9856L9.69873 7.99996L11.804 10.0134L14.0431 8.78121C14.6522 8.44465 14.6522 7.55528 14.0431 7.21872Z" fill="black"/>
</svg>
